<?xml version="1.0" standalone="no"?>
<!DOCTYPE svg PUBLIC "-//W3C//DTD SVG 20010904//EN"
 "http://www.w3.org/TR/2001/REC-SVG-20010904/DTD/svg10.dtd">
<svg version="1.0" xmlns="http://www.w3.org/2000/svg"
 width="512.000000pt" height="512.000000pt" viewBox="0 0 512.000000 512.000000"
 preserveAspectRatio="xMidYMid meet">
<metadata>
Created by potrace 1.11, written by Peter Selinger 2001-2013
</metadata>
<g transform="translate(0.000000,512.000000) scale(0.100000,-0.100000)"
fill="#000000" stroke="none">
<path d="M2443 4223 c-54 -43 -105 -83 -113 -90 -117 -94 -162 -130 -249 -198
-57 -44 -129 -100 -160 -125 -31 -25 -98 -78 -149 -118 -70 -55 -92 -78 -92
-97 0 -32 22 -38 147 -36 l103 0 0 -97 c2 -361 0 -715 -3 -719 -4 -3 -260 -5
-457 -3 l-45 0 0 50 c-1 38 3 50 15 51 8 1 53 1 100 1 46 0 92 4 102 9 17 9
18 32 18 307 0 163 -4 303 -9 310 -12 19 -973 21 -996 2 -13 -11 -15 -59 -15
-310 0 -226 3 -300 13 -307 6 -6 58 -9 114 -9 85 1 103 -2 104 -14 1 -8 2
-460 3 -1003 1 -894 3 -990 17 -1000 12 -9 423 -12 1674 -11 1481 0 1659 2
1669 16 8 11 11 288 11 1012 0 657 3 996 10 997 5 1 51 1 100 1 50 0 98 4 108
10 16 8 17 33 17 307 0 254 -2 300 -15 311 -22 18 -969 18 -990 0 -13 -10 -15
-61 -15 -311 0 -227 3 -300 13 -306 6 -4 59 -8 117 -9 l104 -1 1 -47 c1 -26
-2 -49 -7 -52 -10 -6 -488 -7 -494 -1 -3 2 -5 186 -5 408 l-1 404 104 1 c125
1 148 7 148 39 0 19 -39 54 -187 172 -104 81 -195 153 -203 160 -220 178 -477
373 -490 373 -10 0 -63 -35 -117 -77z"/>
</g>
</svg>
